<?xml version="1.0" encoding="UTF-8"?>
<svg id="Layer_1" xmlns="http://www.w3.org/2000/svg" version="1.1" viewBox="0 0 64 64">
  <!-- Generator: Adobe Illustrator 30.0.0, SVG Export Plug-In . SVG Version: 2.1.1 Build 123)  -->
  <defs>
    <style>
      .st0 {
        fill: #6cff3e;
      }
    </style>
  </defs>
  <path class="st0" d="M38.62,59.94v-13.93c0-.92-1.11-1.21-1.84-1.27-2.16-.2-7.25-.25-9.36,0-.39.05-1.46.55-1.46.88v14.32h-12.56c-1.08,0-2.11-1.58-2.04-2.63v-24.7s20.72-19.21,20.72-19.21l20.34,19.21-.11,26.11c-.16.46-1.3,1.22-1.7,1.22h-11.98Z"/>
  <polygon class="st0" points="31.93 4.06 60.54 30.73 57.2 34.01 56.45 33.65 31.9 10.71 7.06 33.95 6.68 33.95 3.46 30.92 31.93 4.06"/>
  <polygon class="st0" points="18.37 8.91 18.37 13.88 11.55 20.21 11.35 8.91 18.37 8.91"/>
</svg>